<svg xmlns="http://www.w3.org/2000/svg" xmlns:xlink="http://www.w3.org/1999/xlink" version="1.1" id="Layer_2" x="0px" y="0px" style="enable-background:new 0 0 3487.72 2346.29;" xml:space="preserve" viewBox="739.87 178.74 2006.72 1989.89">
<style type="text/css">
	.st0{fill:#9B60E1;}
	.st1{fill:#8F43DB;}
</style>
<g>
	<path class="st0" d="M1588.22,721.46L1941.15,302c0,0,0,0,0,0c32.1-43.9,29.21-69.54,1.61-82.29   c-130.57-60.74-296.68-45.64-377.02-8.3c-4.92,2.29-9.92,4.42-14.7,7c-52.42,28.34-81.95,63.79-87.96,116.36   c-1.82,15.9-1.05,31.98,1.73,47.74C1483.08,486.2,1524.27,599.2,1588.22,721.46C1588.22,721.46,1588.22,721.46,1588.22,721.46z"/>
	<path class="st1" d="M1648.97,752.51l354.83-422.86c4.38-5.22,12.93-2.87,13.94,3.88c20.89,140.38-105.57,367.22-268.73,621.01   c-2.44,3.8-7.97,3.88-10.53,0.16L1645.94,820C1631.75,799.35,1632.99,771.8,1648.97,752.51z"/>
</g>
<g>
	<path class="st0" d="M1953.97,745.69l546.67-40.7c0,0,0,0,0,0c53.83-7.72,70.15-27.71,59.98-56.36   c-47.81-135.84-174.69-244.1-257.54-275.48c-5.08-1.92-10.09-4.01-15.28-5.62c-56.9-17.69-102.9-14.04-144.7,18.41   c-12.64,9.81-23.61,21.6-32.94,34.6C2048.77,506.08,1996.73,614.51,1953.97,745.69C1953.97,745.69,1953.97,745.69,1953.97,745.69z"/>
	<path class="st1" d="M1974.22,810.85l550.43-41.72c6.8-0.52,11.09,7.25,6.97,12.68c-85.81,113.05-336.43,181.12-632,241.77   c-4.42,0.91-8.35-2.99-7.47-7.42l31.68-160.33C1928.68,831.26,1949.26,812.89,1974.22,810.85z"/>
</g>
<g>
	<path class="st0" d="M2203.21,1021.84L2624.16,1373c0,0,0,0,0,0c44.04,31.91,69.66,28.91,82.29,1.26   c60.19-130.83,44.39-296.87,6.71-377.06c-2.31-4.91-4.46-9.91-7.06-14.67c-28.56-52.3-64.13-81.68-116.73-87.46   c-15.91-1.75-31.98-0.92-47.73,1.93C2438.03,915.72,2325.2,957.38,2203.21,1021.84   C2203.21,1021.84,2203.21,1021.84,2203.21,1021.84z"/>
	<path class="st1" d="M2172.42,1082.73l424.35,353.04c5.24,4.36,2.92,12.92-3.82,13.95c-140.29,21.48-367.66-104.02-622.14-266.12   c-3.81-2.43-3.92-7.95-0.21-10.53l134.32-93.11C2125.51,1065.7,2153.06,1066.83,2172.42,1082.73z"/>
</g>
<g>
	<path class="st0" d="M2173.78,1384.38l53.75,545.55c0,0,0,0,0,0c9.01,53.63,29.38,69.47,57.77,58.62   c134.66-51.04,239.86-180.47,269.25-264.05c1.8-5.12,3.77-10.19,5.26-15.41c16.32-57.31,11.58-103.2-21.86-144.22   c-10.11-12.4-22.15-23.08-35.37-32.1C2415.59,1473.44,2305.95,1424,2173.78,1384.38   C2173.78,1384.38,2173.78,1384.38,2173.78,1384.38z"/>
	<path class="st1" d="M2109.13,1406.19l54.85,549.28c0.68,6.79-6.98,11.26-12.51,7.27c-115.06-83.09-189.1-332.01-256.8-626.04   c-1.01-4.4,2.79-8.42,7.23-7.65l161.05,27.84C2087.63,1361.15,2106.49,1381.28,2109.13,1406.19z"/>
</g>
<g>
	<path class="st0" d="M1899,1627.01l-355.95,416.91c0,0,0,0,0,0c-32.41,43.67-29.71,69.33-2.2,82.27   c130.13,61.68,296.34,47.78,376.95,11.02c4.94-2.25,9.96-4.34,14.75-6.89c52.62-27.96,82.41-63.2,88.79-115.72   c1.93-15.88,1.28-31.97-1.38-47.75C2002.43,1863.03,1962.06,1749.73,1899,1627.01C1899,1627.01,1899,1627.01,1899,1627.01z"/>
	<path class="st1" d="M1838.47,1595.52l-357.87,420.29c-4.42,5.19-12.95,2.78-13.91-3.98c-19.88-140.53,108.21-366.44,273.21-619.06   c2.47-3.78,8-3.83,10.53-0.09l91.57,135.37C1856.02,1548.81,1854.59,1576.35,1838.47,1595.52z"/>
</g>
<g>
	<path class="st0" d="M1523.13,1606.75l-546.83,38.56c0,0,0,0,0,0c-53.86,7.51-70.26,27.43-60.2,56.12   c47.27,136.02,173.73,244.78,256.46,276.48c5.07,1.94,10.08,4.05,15.26,5.68c56.83,17.91,102.84,14.44,144.77-17.84   c12.68-9.76,23.69-21.5,33.07-34.47C1427.39,1845.99,1479.86,1737.77,1523.13,1606.75   C1523.13,1606.75,1523.13,1606.75,1523.13,1606.75z"/>
	<path class="st1" d="M1503.14,1541.52l-550.59,39.56c-6.8,0.49-11.06-7.29-6.92-12.7c86.25-112.71,337.14-179.8,632.94-239.3   c4.43-0.89,8.34,3.02,7.44,7.44l-32.31,160.21C1548.75,1521.28,1528.11,1539.57,1503.14,1541.52z"/>
</g>
<g>
	<path class="st0" d="M1282.69,1318.72L863,966.06c0,0,0,0,0,0c-43.92-32.07-69.56-29.16-82.29-1.55   c-60.65,130.61-45.45,296.71-8.05,377.03c2.29,4.92,4.42,9.92,7.01,14.69c28.38,52.4,63.84,81.91,116.42,87.88   c15.9,1.81,31.98,1.03,47.73-1.76C1047.5,1424.01,1160.48,1382.75,1282.69,1318.72   C1282.69,1318.72,1282.69,1318.72,1282.69,1318.72z"/>
	<path class="st1" d="M1313.7,1257.94L890.61,903.39c-5.23-4.38-2.88-12.93,3.87-13.94c140.37-20.98,367.28,105.32,621.19,268.33   c3.8,2.44,3.89,7.97,0.17,10.53l-134.65,92.63C1360.55,1275.13,1333,1273.91,1313.7,1257.94z"/>
</g>
<g>
	<path class="st0" d="M1304.11,953.25l-38.86-546.81c0,0,0,0,0,0c-7.54-53.86-27.47-70.24-56.15-60.17   c-136,47.35-244.69,173.86-276.34,256.61c-1.94,5.07-4.05,10.08-5.67,15.26C909.2,674.99,912.69,721,945,762.91   c9.77,12.67,21.52,23.68,34.48,33.05C1064.81,857.64,1173.07,910.05,1304.11,953.25C1304.11,953.25,1304.11,953.25,1304.11,953.25z   "/>
	<path class="st1" d="M1369.33,933.22l-39.86-550.57c-0.49-6.8,7.28-11.07,12.7-6.93c112.76,86.19,179.98,337.04,239.64,632.81   c0.89,4.43-3.01,8.34-7.44,7.45l-160.23-32.22C1389.59,978.83,1371.29,958.19,1369.33,933.22z"/>
</g>
</svg>