<?xml version="1.0" standalone="no"?>
<!DOCTYPE svg PUBLIC "-//W3C//DTD SVG 20010904//EN"
 "http://www.w3.org/TR/2001/REC-SVG-20010904/DTD/svg10.dtd">
<svg version="1.0" xmlns="http://www.w3.org/2000/svg"
 width="512.000000pt" height="512.000000pt" viewBox="0 0 512.000000 512.000000"
 preserveAspectRatio="xMidYMid meet">

<g transform="translate(0.000000,512.000000) scale(0.100000,-0.100000)"
fill="#FFFFFF" stroke="none">
<path d="M1417 5104 c-15 -8 -48 -47 -73 -85 -82 -128 -168 -204 -322 -284
-44 -23 -89 -56 -113 -84 -34 -38 -43 -43 -57 -33 -46 32 -95 52 -158 62 -176
30 -285 76 -407 175 -62 50 -73 55 -116 55 -53 0 -92 -23 -115 -68 -40 -77
-45 -288 -11 -429 21 -84 103 -258 143 -301 36 -38 81 -43 112 -12 31 31 25
71 -24 149 -24 39 -57 111 -72 159 -25 76 -29 102 -29 204 0 64 3 120 8 124 4
4 17 -2 30 -13 85 -79 251 -153 399 -179 51 -9 105 -22 120 -30 42 -22 77 -65
90 -109 16 -56 44 -85 84 -85 48 0 74 38 74 107 0 63 26 122 67 151 16 10 57
33 92 51 112 57 239 168 306 269 15 23 31 42 35 42 10 0 56 -112 69 -165 41
-174 18 -310 -97 -561 -28 -62 -71 -170 -96 -240 l-44 -129 -26 58 c-14 32
-26 63 -26 70 0 30 -50 115 -87 148 -57 51 -118 72 -195 67 -98 -6 -182 -58
-224 -139 -19 -38 -54 -214 -54 -274 0 -25 -3 -45 -7 -45 -5 1 -32 37 -62 81
-101 151 -143 178 -196 124 -35 -34 -31 -64 18 -131 69 -94 140 -203 192 -293
45 -78 50 -93 62 -190 38 -319 129 -598 307 -948 47 -92 84 -168 83 -169 -1 0
-47 6 -103 14 -55 8 -113 12 -129 8 -68 -17 -115 -107 -91 -175 17 -51 104
-170 132 -183 49 -23 114 34 98 86 -3 11 -22 43 -41 69 -19 27 -33 50 -31 51
2 2 302 -44 668 -100 366 -57 677 -103 693 -104 65 -1 91 92 37 131 -19 13
-154 37 -530 94 -278 42 -506 78 -507 78 0 1 -37 67 -82 146 -123 222 -226
460 -286 667 -84 287 -107 689 -53 939 15 72 61 115 121 115 63 0 101 -33 122
-108 81 -278 366 -587 830 -897 228 -152 437 -271 751 -426 277 -137 313 -148
349 -109 21 24 24 72 5 95 -7 8 -110 63 -229 121 l-216 105 -109 252 c-60 139
-120 264 -134 279 -31 34 -80 45 -119 26 -15 -7 -47 -42 -70 -78 -43 -66 -76
-99 -125 -125 -26 -14 -30 -12 -140 66 -143 103 -260 201 -366 307 -123 124
-118 112 -88 231 34 132 81 260 149 407 99 214 128 353 108 521 -20 166 -93
345 -161 391 -38 26 -92 28 -133 6z m908 -2011 c20 -49 44 -103 51 -121 l15
-33 -33 17 c-27 14 -176 101 -186 109 -4 3 101 112 109 114 3 1 23 -38 44 -86z"/>
<path d="M3270 2457 c-35 -18 -48 -61 -30 -94 9 -15 79 -64 175 -122 280 -168
488 -326 704 -536 378 -368 632 -762 780 -1208 18 -54 31 -100 29 -102 -2 -2
-96 67 -208 153 -757 581 -741 569 -870 640 -168 91 -340 147 -560 182 -144
23 -274 54 -343 81 -63 25 -83 24 -112 -6 -32 -31 -33 -75 -2 -102 42 -39 227
-89 477 -128 189 -30 415 -118 581 -227 118 -77 990 -751 982 -759 -5 -5 -64
-19 -133 -33 -521 -105 -1071 -19 -1625 254 -370 183 -711 430 -1048 759 -97
96 -176 175 -175 176 2 2 109 18 238 36 223 32 236 35 264 61 22 23 27 34 21
56 -10 41 -34 62 -70 62 -18 0 -126 -14 -241 -31 -174 -26 -227 -30 -319 -25
-187 9 -352 62 -511 164 -90 58 -120 63 -152 29 -26 -27 -28 -64 -7 -94 20
-28 139 -102 237 -147 73 -34 214 -78 290 -91 29 -4 48 -19 95 -72 l58 -67 1
-150 c1 -170 15 -246 68 -387 42 -112 148 -290 186 -312 55 -33 139 -15 172
36 9 12 35 91 59 174 l42 151 96 -72 c483 -365 993 -593 1512 -678 174 -28
533 -31 703 -5 151 23 325 66 362 88 31 19 64 72 64 103 0 9 9 33 20 53 26 49
25 60 -9 184 -215 764 -818 1484 -1634 1953 -112 64 -133 71 -167 53z m-1199
-1459 c65 -62 119 -119 119 -126 0 -12 -63 -245 -76 -282 -13 -36 -125 203
-148 317 -18 87 -30 203 -21 203 3 0 60 -51 126 -112z"/>
<path d="M3130 1060 c-30 -30 -27 -83 6 -109 42 -33 270 -145 394 -194 212
-83 459 -143 510 -126 26 10 50 45 50 74 0 8 -10 25 -22 39 -19 20 -44 30
-128 46 -196 40 -433 127 -636 236 -109 58 -143 65 -174 34z"/>
<path d="M2980 800 c-30 -30 -27 -83 6 -109 59 -47 338 -179 515 -245 221 -81
561 -146 771 -146 49 0 63 4 83 25 32 31 32 69 0 100 -20 20 -34 25 -78 25
-326 0 -740 115 -1104 306 -67 35 -133 64 -147 64 -15 0 -35 -9 -46 -20z"/>
</g>
</svg>
